<svg version="1.1" viewBox="0.0 0.0 960.0 720.0" fill="none" stroke="none" stroke-linecap="square" stroke-miterlimit="10" xmlns:xlink="http://www.w3.org/1999/xlink" xmlns="http://www.w3.org/2000/svg"><clipPath id="p.0"><path d="m0 0l960.0 0l0 720.0l-960.0 0l0 -720.0z" clip-rule="nonzero"/></clipPath><g clip-path="url(#p.0)"><path fill="#000000" fill-opacity="0.0" d="m0 0l960.0 0l0 720.0l-960.0 0z" fill-rule="evenodd"/><path fill="#ffffff" d="m260.4252 300.8084l0 0c0 -104.36879 84.607605 -188.97638 188.97638 -188.97638l0 0c50.11966 0 98.186554 19.90995 133.6265 55.34989c35.43994 35.439957 55.349854 83.506836 55.349854 133.6265l0 0c0 104.368774 -84.607605 188.97638 -188.97635 188.97638l0 0c-104.368774 0 -188.97638 -84.607605 -188.97638 -188.97638z" fill-rule="evenodd"/><path fill="#ff0000" d="m359.02362 332.97638l0 -45.950012l90.37796 -55.15236l90.37796 55.15236l0 45.950012l-90.37796 -55.152344z" fill-rule="evenodd"/></g></svg>